# xmcd CD database file
#
# Track frame offsets:
#	182
#	14205
#	29902
#	44752
#	64785
#	80580
#	94015
#	113080
#	126470
#	143885
#	150195
#	164910
#	180777
#	190265
#	205607
#	223775
#	241352
#	258840
#	271807
#	287200
#
# Disc length: 3964 seconds
#
# Revision: 0
# Processed by: cddbd v1.4PL0 Copyright (c) Steve Scherf et al.
# Submitted via: Feurio! 1.65 - http://www.feurio.com
#
DISCID=2d0f7a14
DTITLE=The Dillards - Roots And Branches - Tribute To The American Duck
DYEAR=1972
DGENRE=Country
TTITLE0=Redbone Hound
TTITLE1=Forget Me Not
TTITLE2=One A.M.
TTITLE3=Last Morning
TTITLE4=Get Out On The Road
TTITLE5=Big Bayou
TTITLE6=I've Been Hurt
TTITLE7=Billy Jack
TTITLE8=Sunny Day
TTITLE9=Man Of Constant Sorrow
TTITLE10=Music Is Music
TTITLE11=Caney Creek
TTITLE12=Dooley
TTITLE13=Love Has Gone Away
TTITLE14=You've Got To Be Strong
TTITLE15=Carry Me Off
TTITLE16=Smile For Me
TTITLE17=Hot Rod Banjo
TTITLE18=Daddy Was A Mover
TTITLE19=What's Time To A Hog
EXTD=ARD BGOCD 306
EXTT0=Roots And Branches
EXTT1=Roots And Branches
EXTT2=Roots And Branches
EXTT3=Roots And Branches
EXTT4=Roots And Branches
EXTT5=Roots And Branches
EXTT6=Roots And Branches
EXTT7=Roots And Branches
EXTT8=Roots And Branches
EXTT9=Roots And Branches
EXTT10=Tribute To The American Duck
EXTT11=Tribute To The American Duck
EXTT12=Tribute To The American Duck
EXTT13=Tribute To The American Duck
EXTT14=Tribute To The American Duck
EXTT15=Tribute To The American Duck
EXTT16=Tribute To The American Duck
EXTT17=Tribute To The American Duck
EXTT18=Tribute To The American Duck
EXTT19=Tribute To The American Duck
PLAYORDER=
